<?xml version="1.0" encoding="utf-8"?>
<!-- Generator: Adobe Illustrator 14.0.0, SVG Export Plug-In . SVG Version: 6.00 Build 43363)  -->
<!DOCTYPE svg PUBLIC "-//W3C//DTD SVG 1.1//EN" "http://www.w3.org/Graphics/SVG/1.1/DTD/svg11.dtd">
<svg version="1.1" id="Layer_2" xmlns="http://www.w3.org/2000/svg" xmlns:xlink="http://www.w3.org/1999/xlink" x="0px" y="0px"
	 width="300px" height="108px" viewBox="0 0 300 108" enable-background="new 0 0 300 108" xml:space="preserve">
<path fill="#FF7300" d="M35.702,27.999l-0.01,0.013C23.962,40.37,13.205,56.282,6.914,70.558
	C3.556,78.181-4.313,96.043,7.26,103.498c6.377,4.123,14.643,1.947,21.576-5.663c2.642-2.908,5.538-7.15,8.402-11.697
	c-0.212,1.372-0.369,2.716-0.369,4.047v0.112c0.023,6.021,2.448,9.758,4.485,11.821c3.004,3.062,7.042,4.599,11.997,4.572
	c7.615-0.024,15.167-3.622,20.859-7.251c4.387,4.547,10.727,7.042,18.306,7.042c8.028,0.005,16.935-3.204,26.516-9.495
	c3.022,4.315,9.021,9.495,20.36,9.495c6.332,0.005,13.271-2.021,20.636-5.979c3.974,2.69,10.466,5.995,18.493,6.019
	c8.108,0.009,15.402-2.99,20.483-8.167c3.296,3.962,9.162,8.128,19.329,8.128c6.34,0.005,13.271-2.021,20.638-5.979
	c3.974,2.69,10.459,5.995,18.492,6.019c16.911,0.026,27.201-12.192,27.384-24.029l0.007-0.322c0-3.693-0.948-7.62-2.889-11.982
	c-0.611-1.367-1.411-2.763-2.26-4.243c-0.035-0.072-0.088-0.156-0.132-0.228c1.065,0.515,2.199,1.296,3.411,2.375l3.041,2.686
	l12.059-17.19l-5.186-5.386c-6.707-6.958-15.541-7.452-19.039-7.346c-0.041,0-0.085,0.014-0.137,0.014
	c0.465-2.097,0.738-4.334,0.746-6.72l0.023-3.927l-3.685-0.086c-18.329-0.045-18.574-0.018-18.844,0.013l-3.255,0.386v3.359
	c0,2.358,0,5.022-2.396,8.97c-0.221,0.364-0.449,0.707-0.675,1.033c-2.989-1.617-6.468-2.458-10.39-2.514
	c-3.356-0.047-11.691,0.639-20.935,7.199c-0.085-0.093-0.358-0.381-0.358-0.381c-6.705-6.958-15.546-7.452-19.037-7.346
	c-8.182,0.258-15.979,4.096-21.006,9.924c-3.634-5.953-9.865-9.289-17.603-9.396c-4.485-0.058-16.012,1.134-27.588,12.91
	c-0.432-1.149-0.931-2.272-1.537-3.302c-3.617-6.089-9.921-9.497-17.751-9.608c-1.899-0.024-5.058,0.187-8.94,1.301
	c3.651-5.484,5.528-11.487,5.528-17.81l-0.018-1.098C105.465,8.609,92.764,1.597,81.177,1.494
	C67.661,1.387,52.79,10.055,35.702,27.999"/>
<path fill="#562300" d="M278.688,61.389c2.652,0.595,5.017,2.352,6.704,3.853l7.899-11.273l-3.005-3.116
	c-5.692-5.907-13.295-6.326-16.306-6.226c-1.945,0.058-3.923,0.364-5.851,0.889c0.345-0.656,0.662-1.294,0.935-1.936
	c1.877-4.494,1.723-9.117,1.739-9.676c0,0-18.11-0.045-18.419-0.011c0,2.739-0.058,6.206-2.961,10.964
	c-0.977,1.603-2.03,2.935-2.713,3.652l-0.328,0.356c-2.49-2.042-6.05-3.649-11.187-3.707c-3.549-0.048-12.025,0.775-21.256,8.389
	l-2.601-2.694c-5.689-5.911-13.298-6.326-16.306-6.226c-8.97,0.278-18.451,5.663-21.895,14.389
	c-0.411-2.108-1.091-4.171-2.211-6.065c-2.077-3.492-6.306-7.69-14.676-7.792c-4.109-0.055-14.841,1.058-25.682,12.55
	c-1.422,1.504-2.699,3.116-3.906,4.771c-0.147-3.284-0.884-6.603-2.613-9.528c-2.081-3.492-6.31-7.69-14.672-7.792
	c-4.105-0.055-14.844,1.058-25.689,12.55c-4.83,5.12-8.56,11.338-10.51,17.532c-0.182,0.556-0.493,1.964-0.726,2.96
	c-1.735,1.222-4.673,2.771-5.324,2.28c-0.386-0.298-0.341-1.141,0.062-2.555c0.64-2.273,1.491-4.786,2.279-6.892
	c2.715-7.299,1.434-10.552,0.102-11.724c4.02-1.19,10.505-3.064,17.508-8.184c10.007-7.325,15.267-16.393,15.267-26.254
	c0-0.323-0.005-0.649-0.016-0.971C101.879,11.139,91.367,5.348,81.151,5.262c-12.467-0.1-26.47,8.197-42.821,25.373
	C26.878,42.708,16.39,58.211,10.26,72.11c-3.214,7.296-9.91,22.492-1.049,28.2c4.791,3.097,11.288,1.161,16.941-5.051
	c4.041-4.444,8.917-12.541,13.215-19.691c1.905-3.168,3.697-6.167,5.109-8.288c0.89-1.328,1.881-2.262,2.969-2.829
	c2.076-1.086,2.326-0.222,0.698,3.109l-0.368,0.761c-3.227,6.614-7.234,14.832-7.234,21.863c0,0.017,0,0.041,0,0.064
	c0.017,4.763,1.86,7.636,3.396,9.202c2.29,2.327,5.449,3.498,9.406,3.477c8.073-0.039,16.329-4.742,21.579-8.447
	c3.067,4.573,8.662,8.226,17.597,8.226c9.961,0.01,20.223-5.666,27.747-11.084c0.164,0.379,0.311,0.77,0.505,1.14
	c1.927,3.715,6.91,9.944,18.617,9.944c6.304,0.003,13.318-2.214,20.902-6.618c3.856,3.005,10.384,6.64,18.246,6.657
	c9.83,0.019,17.07-4.631,20.818-10.718c0.113,0.244,0.225,0.492,0.358,0.734c1.919,3.715,6.904,9.944,18.623,9.944
	c6.291,0.003,13.313-2.214,20.892-6.618c3.86,3.005,10.387,6.64,18.249,6.657c14.638,0.024,23.552-10.309,23.698-20.302
	c0-0.088,0-0.179,0-0.274c0-3.142-0.832-6.552-2.551-10.416c-0.526-1.186-1.28-2.498-2.079-3.903
	c-0.638-1.106-1.419-2.484-1.714-3.177C273.821,62.183,275.13,60.596,278.688,61.389 M77.329,29.828
	c-2.999,5.019-10.222,11.191-20.12,14.537c7.036-10.827,14.621-19.215,19.542-20.684C80.125,22.661,79.784,25.708,77.329,29.828z
	 M106.188,61.202c0.146,0.797-0.102,2.148-0.562,3.529c-0.97,0-2.693,0.024-3.952,0.024
	C102.802,62.454,105.716,59.029,106.188,61.202z M107.881,82.071c-4.574,2.449-7.772,3.491-9.864,3.508
	c-3.237,0.039-3.276-2.986-2.195-6.961c3.771,0,11.175,0,17.593,0C111.471,79.998,109.623,81.136,107.881,82.071z M153.272,61.202
	c0.158,0.797-0.104,2.148-0.567,3.529c-0.964,0-2.687,0.024-3.941,0.024C149.898,62.454,152.802,59.029,153.272,61.202z
	 M154.739,82.071c-4.574,2.449-7.771,3.491-9.863,3.508c-3.238,0.039-3.283-2.986-2.195-6.961c3.776,0,11.174,0,17.579,0
	C158.323,79.998,156.479,81.136,154.739,82.071z M178.363,85.242c-0.739,1.053-3.18,0.722-5.401-0.263
	c-1.935-0.865-3.731-2.596-4.928-3.903c0.717-1.061,2.744-3.788,4.491-9.476c0.916,3.312,2.585,6.2,4.395,9.059
	C178.302,82.832,178.898,84.486,178.363,85.242z M199.987,72.472c-0.096-0.242-0.191-0.476-0.306-0.72
	c-0.528-1.186-1.278-2.498-2.081-3.903c-0.635-1.106-1.423-2.484-1.705-3.177c-0.392-0.962-0.448-1.606-0.448-1.887
	c0,0,0-0.009,0-0.019c0.029-0.523,0.116-1.58,2.443-1.587c2.448-0.006,5.238,1.868,6.469,3.021
	C202.597,66.862,201.116,69.651,199.987,72.472z M232.15,61.202c0.154,0.797-0.096,2.148-0.567,3.529
	c-0.957,0-2.688,0.024-3.944,0.024C228.779,62.454,231.683,59.029,232.15,61.202z M233.619,82.071
	c-4.575,2.449-7.771,3.491-9.865,3.508c-3.235,0.039-3.281-2.986-2.192-6.961c3.774,0,11.173,0,17.578,0
	C237.202,79.998,235.358,81.136,233.619,82.071z M257.248,85.242c-0.742,1.053-3.186,0.722-5.406-0.263
	c-1.935-0.865-3.738-2.596-4.933-3.903c0.718-1.061,2.742-3.788,4.495-9.476c0.923,3.312,2.585,6.2,4.395,9.059
	C257.169,82.832,257.777,84.486,257.248,85.242z"/>
<path fill="#FFF200" d="M265.112,39.051c0,0-8.175,0-8.19,0c-0.631,6.011-5.218,11.661-6.597,13.096
	c0.64,0.879,1.223,2.011,1.223,2.011C258.936,50.585,264.531,43.664,265.112,39.051"/>
<path fill="#FFF200" d="M197.868,55.988c2.896-0.008,5.34,1.278,6.991,2.62c0.007,0,2.88-4.102,2.88-4.102
	c-4.39-4.56-10.547-4.75-12.548-4.691c-9.007,0.284-18.463,6.94-18.364,16.544c0.042,4.02,1.6,7.137,4.339,11.477
	c1.19,1.867,2.171,3.841,2.491,5.997c0.452,2.948-0.591,6.747-6.97,6.822c-7.693,0.094-11.98-5.626-14.005-7.89
	c-5.985,3.89-13.543,7.858-19.104,7.662c-7.773-0.27-7.966-7.564-4.508-16.672h27.292c3.455-7.073,4.538-23.206-10.162-23.401
	c-5.893-0.079-14.221,2.725-21.989,10.96c-3.94,4.183-7.114,9.205-8.957,14.391c-0.051,0.055-0.097,0.107-0.113,0.144
	c-0.018,0.036-0.035,0.08-0.051,0.119c-2.955,2.507-18.705,14.806-28.381,14.46c-7.779-0.27-7.971-7.564-4.519-16.672h27.298
	c3.447-7.073,4.536-23.206-10.177-23.401c-5.879-0.079-14.207,2.725-21.974,10.96c-4.236,4.49-7.582,9.945-9.344,15.53
	c-0.295,0.919-0.913,3.736-0.976,4.249c-3.757,2.423-9.269,5.247-11.882,5.153c-2.75-0.104-4.286-1.913-3.934-4.67
	c0.437-3.568,2.318-9.121,3.537-12.396c2.67-7.184-1.247-10.782-4.092-12.316c13.152-1.97,37.281-13.682,36.63-32.777
	c-0.397-10.946-10.268-13.577-16.17-13.625c-11.083-0.094-23.93,7.812-39.149,23.807C29.976,46.888,20.324,61.891,14.883,74.25
	c-2.929,6.636-7.807,18.545-2.976,21.669c3.116,2.004,7.496-0.854,10.536-4.199c5.468-6.003,13.282-20.469,17.844-27.353
	c2.967-4.461,6.744-5.859,9.946-5.806c3.971,0.065,6.294,3.398,2.445,11.327c-2.981,6.123-7.089,14.283-7.069,20.343
	c0.004,2.771,0.874,7.531,7.705,7.501c8.849-0.047,19.508-7.597,23.76-11.487h0.011c0.585,4.679,4.394,11.273,15.427,11.273
	c11.447,0.008,24.056-9.029,31.132-15.105c0,0.046,0.022,0.144,0.045,0.263c-0.155,2.541,0.237,5.108,1.547,7.645
	c1.922,3.71,6.128,7.198,14.152,7.198c7.262,0.008,14.979-3.626,21.471-7.831c1.814,2.185,8.952,7.848,17.684,7.866
	c11.691,0.023,18.521-7.744,18.638-15.193c0.035-2.803-0.924-5.795-2.103-8.449c-0.896-1.993-3.074-5.301-3.854-7.228
	c-0.622-1.522-0.872-2.937-0.838-4.125C190.603,57.965,194.162,56.006,197.868,55.988 M150.318,56.716
	c2.303-1.569,5.495-2.028,6.894,0.173c2.223,3.491,0.578,8.653-0.448,11.996h-15.636C143.588,63.531,147.07,58.914,150.318,56.716z
	 M103.438,56.716c2.314-1.569,5.506-2.028,6.9,0.173c2.222,3.491,0.578,8.653-0.441,11.996H94.26
	C96.709,63.531,100.194,58.914,103.438,56.716z M47.979,50.464c5.483-9.975,18.482-31.004,29.85-32.189
	c6.689-0.687,8.623,5.204,5.284,11.777c-2.999,5.914-8.368,10.799-15.437,14.643C58.332,49.775,48.57,50.55,47.979,50.464z"/>
<path fill="#FFF200" d="M274.132,49.812c-9.002,0.285-18.466,6.943-18.361,16.545c0.047,4.02,1.6,7.135,4.331,11.474
	c1.201,1.873,2.179,3.843,2.492,6.003c0.448,2.942-0.594,6.743-6.966,6.817c-7.693,0.099-11.98-5.624-14.005-7.885
	c-5.991,3.888-13.541,7.854-19.098,7.658c-7.779-0.271-7.976-7.563-4.513-16.67h27.299c3.443-7.074,4.522-23.208-10.175-23.404
	c-5.884-0.079-14.211,2.726-21.984,10.964c-4.241,4.49-7.579,9.938-9.337,15.526c-1.393,4.357-1.969,8.971,0.375,13.479
	c1.908,3.707,6.114,7.191,14.145,7.191c7.251,0.012,14.976-3.622,21.462-7.829c1.815,2.189,8.953,7.853,17.685,7.865
	c11.703,0.023,18.519-7.74,18.632-15.192c0.038-2.801-0.92-5.792-2.101-8.444c-0.891-1.998-3.06-5.301-3.853-7.23
	c-0.621-1.52-0.867-2.934-0.835-4.122c0.209-4.597,3.78-6.552,7.488-6.575c2.892-0.006,5.341,1.283,6.981,2.62
	c0.017,0,2.885-4.099,2.885-4.099C282.285,49.942,276.133,49.754,274.132,49.812 M229.259,56.71c2.313-1.57,5.5-2.022,6.896,0.177
	c2.234,3.49,0.576,8.652-0.442,11.992h-15.636C222.525,63.529,226.017,58.907,229.259,56.71z"/>
</svg>
